<?xml version="1.0" standalone="no"?>
<!DOCTYPE svg PUBLIC "-//W3C//DTD SVG 1.1//EN" "http://www.w3.org/Graphics/SVG/1.1/DTD/svg11.dtd" >
<!--
2013-9-30: Created.
-->
<svg>
<metadata>
Created by iconfont
</metadata>
<defs>

<font id="iconfont" horiz-adv-x="1024" >
  <font-face
    font-family="iconfont"
    font-weight="500"
    font-stretch="normal"
    units-per-em="1024"
    ascent="896"
    descent="-128"
  />
    <missing-glyph />
    
    <glyph glyph-name="x" unicode="x" horiz-adv-x="1001"
d="M281 543q-27 -1 -53 -1h-83q-18 0 -36.5 -6t-32.5 -18.5t-23 -32t-9 -45.5v-76h912v41q0 16 -0.5 30t-0.5 18q0 13 -5 29t-17 29.5t-31.5 22.5t-49.5 9h-133v-97h-438v97zM955 310v-52q0 -23 0.5 -52t0.5 -58t-10.5 -47.5t-26 -30t-33 -16t-31.5 -4.5q-14 -1 -29.5 -0.5
t-29.5 0.5h-32l-45 128h-439l-44 -128h-29h-34q-20 0 -45 1q-25 0 -41 9.5t-25.5 23t-13.5 29.5t-4 30v167h911zM163 247q-12 0 -21 -8.5t-9 -21.5t9 -21.5t21 -8.5q13 0 22 8.5t9 21.5t-9 21.5t-22 8.5zM316 123q-8 -26 -14 -48q-5 -19 -10.5 -37t-7.5 -25t-3 -15t1 -14.5
t9.5 -10.5t21.5 -4h37h67h81h80h64h36q23 0 34 12t2 38q-5 13 -9.5 30.5t-9.5 34.5q-5 19 -11 39h-368zM336 498v228q0 11 2.5 23t10 21.5t20.5 15.5t34 6h188q31 0 51.5 -14.5t20.5 -52.5v-227h-327z" />
    

    
    <glyph glyph-name="jiantou3" unicode="&#58885;" d="M235.8856-209.0867 788.7657 300.1065 236.4232 808.7611 236.1754 598.9292 576.8223 301.0168 236.5891 2.6918Z"  horiz-adv-x="1024" />

    
    <glyph glyph-name="shoucang" unicode="&#58906;" d="M912.816185 399.67821c-7.905372 9.383718-16.289672 12.507872-23.082663 14.520715-6.971054 1.867534-13.331169 2.356674-20.003406 2.379187l-230.050936 0.13303c-2.15722-0.11154-7.09488 1.323135-11.163716 4.524037-4.181405 3.091408-6.859509 7.439436-7.32718 9.530051l-66.657894 239.492536c-2.179734 7.538697-4.614281 14.34266-9.628692 21.769816-4.547764 6.693446-14.65436 17.800411-32.923189 18.234293-18.191054-0.388856-28.364168-11.518335-32.912955-18.256806-5.014411-7.471159-7.471472-14.32117-9.594922-21.858844l-66.636403-239.359506c-0.45539-2.112104-3.157032-6.460132-7.338437-9.55154-4.068836-3.201925-8.995239-4.6366-11.141202-4.524037l-230.084706-0.13303c-8.884717-0.122797-17.146215-0.700965-27.175037-4.936429-4.95915-2.213411-10.697069-5.627161-15.844515-11.908214-5.216011-6.126534-8.750659-15.643282-8.584876-24.137747 0.279374-13.631462 6.03776-21.948895 10.75233-27.718295 4.981664-5.836939 10.229398-9.950629 16.077838-13.864776l185.409376-122.180713c3.313605-1.413186 9.139531-11.718903 8.6166-18.556635 0-1.700735-0.21081-3.102664-0.534188-4.124947l-72.072434-236.201583c-2.024185-6.815219-3.536695-13.398148-3.591956-21.471011 0.111545-6.747681 0.900547-15.542998 7.717076-25.428136 6.603672-10.151197 21.258032-16.521279 31.25513-15.898085 18.957543 1.044796 26.852682 8.515954 36.236793 15.620769l181.294489 154.38109c1.47874 1.378393 5.270248 2.991124 9.51817 2.968611 4.113864 0.022513 7.672049-1.456165 9.162045-2.746554l191.09101-155.62543c9.440396-6.882757 17.222966-13.975293 35.757866-14.976086 0.4339-0.022513 0.88929-0.033769 1.345704-0.033769 9.528404 0 22.882087 5.760191 29.420265 15.409968 6.994591 9.784854 7.838854 18.724457 7.927886 25.361621-0.066518 8.651031-1.801095 15.59928-4.214152 22.948665l-81.023669 237.691517c-0.355102 1.000793-0.610939 2.445702-0.610939 4.225231-0.445157 6.437619 4.792344 15.588023 7.816341 16.877389L894.514609 333.990139c5.870954 3.913123 11.129945 8.049327 16.111609 13.886265 4.680799 5.792936 10.441231 14.086833 10.707302 27.718295C921.500326 384.067674 917.964654 393.562932 912.816185 399.67821z"  horiz-adv-x="1024" />

    
    <glyph glyph-name="101" unicode="&#58941;" d="M0 747.487l1024 0 0-80.63-1024 0 0 80.63ZM511.994 454.917 30.386-47.084 126.708-147.487 512 254.119 897.265-147.487 993.614-47.084Z"  horiz-adv-x="1024" />

    
    <glyph glyph-name="close-fat" unicode="&#58905;" d="M306.902 622.375l541.636-541.636-124.273-124.273-541.636 541.636 124.273 124.273zM183.649 497.074c-34.318 34.318-34.318 89.957 0 124.274 34.318 34.318 89.957 34.318 124.274 0M847.519 81.753c34.317-34.317 34.317-89.957 0-124.274-34.318-34.317-89.958-34.317-124.274 0M847.133 496.682l-541.636-541.636-124.274 124.274 541.636 541.636 124.274-124.274zM721.831 619.935c34.317 34.318 89.957 34.317 124.274 0 34.317-34.318 34.317-89.957 0-124.274M306.509-43.934c-34.318-34.318-89.957-34.318-124.273-0.001-34.319 34.318-34.318 89.958 0 124.274z"  horiz-adv-x="1024" />

    
    <glyph glyph-name="bofang" unicode="&#58881;" d="M512.583314 802.857143c-277.736229 0-502.857143-225.1392-502.857143-502.857143 0-277.736229 225.120914-502.857143 502.857143-502.857143s502.857143 225.120914 502.857143 502.857143C1015.440457 577.717943 790.319543 802.857143 512.583314 802.857143L512.583314 802.857143zM512.583314-131.019886C274.9056-131.019886 81.563429 62.322286 81.563429 300c0 237.661257 193.342171 431.019886 431.019886 431.019886S943.6032 537.661257 943.6032 300C943.6032 62.322286 750.262857-131.019886 512.583314-131.019886L512.583314-131.019886zM420.677486 68.850286c-2.770286 0-5.5424 0.6656-8.1024 1.963886-6.0672 3.051886-9.856 9.259886-9.856 15.994514L402.719086 497.328457c0 6.6816 3.717486 12.820114 9.645714 15.9232 5.893486 3.086629 13.083429 2.631314 18.554514-1.175771l287.3472-199.899429c4.770743-3.3152 7.647086-8.735086 7.7184-14.520686 0.069486-5.807543-2.666057-11.278629-7.332571-14.716343L431.305143 72.357486C428.149029 70.042514 424.429714 68.850286 420.677486 68.850286z"  horiz-adv-x="1024" />

    
    <glyph glyph-name="zuojiantou" unicode="&#58888;" d="M788.766 809.761l-552.88-509.193 552.342-508.655 0.248 209.832L447.829 299.658l340.233 298.325L788.766 809.761z"  horiz-adv-x="1024" />

    
    <glyph glyph-name="yuandian" unicode="&#58904;" d="M511.317455 301.194198m-448.208115 0a438 438 0 1 0 896.41623 0 438 438 0 1 0-896.41623 0Z"  horiz-adv-x="1024" />

    
    <glyph glyph-name="cncha" unicode="&#58894;" d="M874.023701-62.040997c-199.939265-199.945405-524.1107-199.945405-724.046895 0-199.939265 199.951545-199.939265 524.127073 0 724.079641 199.936195 199.948475 524.10763 199.948475 724.046895 0C1073.962967 462.087099 1073.962967 137.910548 874.023701-62.040997zM693.009419 408.614351c19.996382 19.990243 19.996382 52.409535 0 72.405917-19.993313 19.990243-52.408512 19.990243-72.401824 0L512.001277 372.406787 403.391889 481.021292c-19.990243 19.990243-52.411582 19.990243-72.404894 0-19.993313-19.996382-19.993313-52.415675 0-72.405917l108.606318-108.614504L330.986995 191.389435c-19.993313-19.996382-19.993313-52.412605 0-72.405917 19.993313-19.996382 52.414652-19.996382 72.404894 0l108.609388 108.608365L620.607595 118.982495c19.993313-19.996382 52.408512-19.996382 72.401824 0 19.996382 19.993313 19.996382 52.409535 0 72.405917L584.403101 300.00087 693.009419 408.614351z"  horiz-adv-x="1024" />

    
    <glyph glyph-name="cngou" unicode="&#58895;" d="M511.999998-212C229.348003-212 0.207645 17.22935 0.207645 299.997954 0.207645 582.769627 229.348003 812 511.999998 812c282.655063 0 511.792353-229.22935 511.792353-512.002046C1023.792351 17.22935 794.655061-212 511.999998-212zM801.515606 459.816838c-19.989379 19.993471-52.391568 19.993471-72.380948 0L439.622119 170.180529 294.864315 314.996638c-19.989379 19.993471-52.391568 19.993471-72.377879 0-19.986311-19.99654-19.986311-52.413049 0-72.40652l180.943675-181.018346c19.986311-19.99654 52.391568-19.99654 72.380948 0l325.702502 325.831386C821.498848 407.397652 821.498848 439.819276 801.515606 459.816838z"  horiz-adv-x="1024" />

    
    <glyph glyph-name="cntanhao" unicode="&#58897;" d="M512.001531 812c-282.755876 0-511.980557-229.229798-511.980557-512.001023 0-282.769178 229.224682-511.997953 511.980557-511.997953 282.758945 0 511.977487 229.229798 511.977487 511.997953C1023.979018 582.770202 794.760476 812 512.001531 812zM512.001531 31.200998c-28.274974 0-51.198056 22.922059-51.198056 51.197032 0 28.278043 22.923082 51.200102 51.198056 51.200102 28.278043 0 51.198056-22.922059 51.198056-51.200102C563.199587 54.123057 540.279574 31.200998 512.001531 31.200998zM563.199587 229.60165c0-28.278043-22.920012-51.203172-51.198056-51.203172-28.274974 0-51.198056 22.925129-51.198056 51.203172L460.803475 536.802264c0 28.274974 22.923082 51.197032 51.198056 51.197032 28.278043 0 51.198056-22.922059 51.198056-51.197032L563.199587 229.60165z"  horiz-adv-x="1024" />

    
    <glyph glyph-name="cnwenhao" unicode="&#58896;" d="M511.432103 812c70.671879 0 136.9729-13.542827 198.909181-40.620323C772.280624 744.30422 826.422363 707.689751 872.774657 661.53933c46.359431-46.144304 82.838298-100.300316 109.433542-162.46396s39.896435-128.716496 39.896435-199.650402c0-70.936964-13.301191-137.292023-39.896435-199.080468-26.595244-61.77621-63.074111-115.93834-109.433542-162.46294-46.352294-46.530717-100.494033-83.142127-162.433373-109.839328-61.936281-26.691083-128.237303-40.041213-198.909181-40.041213-70.677996 0-136.78734 13.35013-198.344345 40.041213-61.553946 26.6972-115.510125 63.30861-161.862419 109.839328-46.36249 46.5246-82.838298 100.68775-109.433542 162.46294C15.196552 162.132945 1.895362 228.488003 1.895362 299.425987c0 70.933906 13.301191 137.487778 39.896435 199.650402s63.071053 116.319656 109.433542 162.46396C197.577633 707.689751 251.533812 744.30422 313.087758 771.379677 374.644763 798.458193 440.754107 812 511.432103 812L511.432103 812zM535.333667 12.261581c15.315843 0 28.132742 5.436298 38.4456 16.313993 10.310819 10.870558 15.465718 24.076929 15.465718 39.616056 0 16.160039-5.1549 29.673298-15.465718 40.546915-10.313877 10.876675-23.129757 16.309915-38.4456 16.309915-15.318902 0-28.135801-5.43324-38.442541-16.309915-10.313877-10.873616-15.465718-24.386876-15.465718-40.546915 0-15.539127 5.151841-28.745498 15.465718-39.616056C507.198886 17.698899 520.014766 12.261581 535.333667 12.261581L535.333667 12.261581zM580.408452 241.569988c-0.589306 9.942757 5.301716 20.502349 17.675107 31.693048 12.37339 11.183563 26.222085 23.613029 41.538947 37.283301 15.32196 13.670272 29.46123 29.052386 42.424946 46.144304 12.962696 17.081722 20.03437 36.816342 21.207885 59.183467 1.179632 24.240059-1.173515 46.921209-7.068615 68.050588-5.892042 21.123261-15.612535 39.30509-29.165557 54.528152-13.553022 15.225102-31.081312 27.346661-52.585889 36.3555-21.504577 9.010879-46.693847 13.516318-75.565771 13.516318-35.940539 0-65.845278-6.681182-89.70504-20.041507-23.863841-13.363384-43.15801-29.520364-57.887605-48.469922-14.729595-18.956695-25.042453-38.531243-30.934495-58.722626-5.892042-20.19852-8.540861-37.132406-7.954614-50.805736 0.589306-16.156981 5.451592-27.961456 14.582779-35.420563 9.134245-7.459107 19.004614-11.343634 29.608047-11.651541 10.606491-0.309946 20.328004 2.796655 29.165557 9.321845 8.837553 6.525189 13.253271 16.003027 13.253271 28.431473 0 7.456048 2.215506 16.623939 6.631224 27.497556 4.418777 10.870558 10.460694 21.283332 18.118616 31.22507 7.657921 9.938679 16.938984 18.329665 27.842167 25.1648 10.897066 6.835136 23.12364 10.252704 36.676662 10.252704 26.51266 0 47.723603-6.992148 63.632831-20.966249 15.909227-13.987355 23.273515-31.542153 22.093883-52.665415 0-10.569787-2.945511-20.355532-8.837553-29.363352-5.888983-9.013937-13.403147-17.711811-22.537392-26.102796-9.134245-8.389966-18.854738-16.777893-29.162498-25.167859-10.313877-8.389966-20.03437-17.08784-29.168616-26.102796-9.134245-9.00782-16.792167-18.796624-22.979882-29.363352-6.184656-10.559592-9.573676-22.057179-10.160943-34.483586l0.879881-35.420563c0-9.321845 4.128202-18.181828 12.37339-26.566697 8.254364-8.389966 19.151431-12.899484 32.704453-13.516318 13.546905 0.617854 24.303272 5.277247 32.254826 13.984296 7.957672 8.694815 11.640326 18.639611 11.05 29.827252L580.408452 241.569988 580.408452 241.569988zM580.408452 241.569988"  horiz-adv-x="1024" />

    
    <glyph glyph-name="cnxinlangweibo" unicode="&#58880;" d="M758.346129 310.831696c-39.816844 7.709589-20.425192 29.144784-20.425192 29.144784s38.950104 64.257489-7.733125 110.959138c-57.874105 57.852616-198.479447-7.358595-198.479447-7.358595-53.708226-16.681938-39.451524 7.627724-31.844266 48.8905 0 48.669466-16.677844 131.016962-159.726841 82.34852C197.251991 525.931682 74.509483 354.594409 74.509483 354.594409-10.802532 240.732152 0.519328 152.734982 0.519328 152.734982 21.837866-41.535607 228.264309-94.881582 388.817981-107.507134 557.718763-120.747693 785.698081-49.288175 854.788645 97.568545 923.927305 244.643228 798.324656 302.845815 758.346129 310.831696L758.346129 310.831696 758.346129 310.831696zM401.32176-52.748996c-167.709653-7.812943-303.248605 76.282361-303.248605 188.151217 0 112.047935 135.539976 201.877847 303.257815 209.606879 167.763888 7.753591 303.57504-61.422931 303.57504-173.189458C704.90601 59.958972 569.084625-45.090573 401.32176-52.748996L401.32176-52.748996 401.32176-52.748996zM367.846344 271.234863C199.213669 251.494263 218.701512 93.521369 218.701512 93.521369s-1.739621-50.040696 45.207621-75.492368c98.674347-53.439096 200.270233-21.10262 251.634064 45.196365C566.883493 129.544817 536.777825 290.812757 367.846344 271.234863L367.846344 271.234863 367.846344 271.234863zM325.2809 49.503852c-31.444153-3.694135-56.836473 14.476713-56.836473 40.803311 0 26.243711 22.535249 53.702086 54.033637 56.969503 36.184107 3.473101 59.748802-17.375739 59.748802-43.732014C382.226866 77.333688 356.69947 53.106914 325.2809 49.503852L325.2809 49.503852 325.2809 49.503852zM424.728866 134.181417c-10.667967-7.943926-23.777543-6.859221-29.398564 2.706645-5.898337 9.335622-3.676739 24.306592 7.085372 32.141024 12.495592 9.296737 25.486464 6.600325 31.132044-2.706645C439.230138 156.768855 435.162496 142.413915 424.728866 134.181417L424.728866 134.181417 424.728866 134.181417zM840.499198 379.212086c13.57825 0 25.159006 10.05296 27.082822 23.192212 0.227174 0.981351 0.366344 1.864464 0.366344 2.959402C888.552633 590.52277 716.190007 558.670318 716.190007 558.670318c-15.306614 0-27.552519-12.384052-27.552519-27.845185 0-15.160281 12.245905-27.522844 27.552519-27.522844 123.815957 27.288506 96.488565-96.465029 96.488565-96.465029C812.668339 391.487667 825.118905 379.212086 840.499198 379.212086L840.499198 379.212086 840.499198 379.212086zM820.407604 702.467351c-59.600423 13.964036-120.875998 1.925862-138.034796-1.381463-1.324158-0.112564-2.581802-1.323135-3.813862-1.577938-0.571005-0.130983-0.942465-0.717338-0.942465-0.717338-16.951067-4.814656-29.324886-20.47738-29.324886-39.001269 0-22.054295 17.882276-40.222073 40.225143-40.222073 0 0 21.663392 2.920516 36.396955 8.656147 14.58416 5.884011 137.985678 4.389984 199.318558-98.5669 33.42118-75.138304 14.6957-125.412314 12.351306-133.49848 0 0-7.956206-19.507286-7.956206-38.746466 0-22.175045 17.879206-36.093033 40.035832-36.093033 18.544355 0 34.075073 2.486634 38.654368 33.840736l0.234337 0C1073.381176 574.52747 927.042249 677.595894 820.407604 702.467351L820.407604 702.467351 820.407604 702.467351z"  horiz-adv-x="1024" />

    
    <glyph glyph-name="cnxing" unicode="&#58884;" d="M1021.638721 418.979812c-5.601578 17.287735-20.565385 29.888727-38.507012 32.468482l-295.959595 43.005466L554.797223 762.663338c-8.029884 16.288988-24.612561 26.608008-42.780339 26.608008-18.168802 0-34.751478-10.31902-42.787502-26.608008L336.856539 494.45376 40.864198 451.448294c-17.98256-2.614547-32.912597-15.180747-38.513152-32.468482-5.600555-17.280572-0.921999-36.224016 12.090363-48.89971l214.180034-208.764698-50.558489-294.782793c-3.058662-17.909905 4.273327-35.999912 18.978237-46.689369 14.70491-10.688433 34.160008-12.088316 50.265824-3.608178l264.744663 139.190109 264.709871-139.190109c6.962575-3.64911 14.59337-5.494131 22.184255-5.494131 9.872858 0 19.754926 3.057639 28.04166 9.103332 14.703887 10.689457 22.036899 28.779464 18.978237 46.689369l-50.556443 294.782793 214.180034 208.764698C1022.559697 382.755796 1027.244392 401.701287 1021.638721 418.979812L1021.638721 418.979812z"  horiz-adv-x="1024" />

    
    <glyph glyph-name="cnxiajiantou" unicode="&#58886;" d="M13.544992 491.618179l424.171676-432.390871c20.470217-20.780279 47.345308-31.218002 74.251098-31.218002 26.934442 0 53.839209 10.437723 74.372871 31.278377l424.110277 432.330496c18.030655 18.374486 18.030655 48.187489 0 66.592674-18.061354 18.372439-47.28084 18.372439-65.342194 0L521.059841 125.943802c-5.094018-5.220908-12.999059-5.15644-18.061354-0.064468L78.886163 558.208806c-18.058284 18.372439-47.308469 18.372439-65.341171 0C-4.486686 539.805668-4.486686 509.992665 13.544992 491.618179z"  horiz-adv-x="1024" />

    
    <glyph glyph-name="cncaidan" unicode="&#58887;" d="M64.018547 555.986185l896.704802 0 0 0.019443c34.997072 0.405229 63.249533 28.887934 63.249533 63.97915 0 35.090193-28.250414 63.572898-63.249533 63.977104l0 0.020466L64.018547 683.982348C28.675598 683.981325 0.020978 655.326704 0.020978 619.985802 0.022001 584.641829 28.675598 555.986185 64.018547 555.986185zM962.769962 363.925938 962.769962 363.996546 64.018547 363.996546C28.675598 363.996546 0.020978 335.340903 0.020978 299.998977s28.65462-63.996546 63.99757-63.996546l898.751415 0 0 0.070608c34.046421 1.465374 61.20292 29.521361 61.20292 63.925938C1023.971859 334.403554 996.815359 362.460564 962.769962 363.925938zM961.746656 43.967766l0 0.045025L64.018547 44.012791C28.675598 44.012791 0.020978 15.358171 0.020978-19.983755c0-35.342949 28.65462-63.99757 63.99757-63.99757l897.728108 0 0 0.045025c34.521235 0.941442 62.226227 29.204136 62.226227 63.952544C1023.971859 14.76363 996.268914 43.025301 961.746656 43.967766z"  horiz-adv-x="1024" />

    
    <glyph glyph-name="cnshang" unicode="&#58889;" d="M1023.970836-35.984171 511.994372 635.984171 0.020978-35.984171Z"  horiz-adv-x="1024" />

    
    <glyph glyph-name="cnshangjiantou" unicode="&#58890;" d="M1010.448868 108.381821 586.277192 540.773715c-20.470217 20.780279-47.344285 31.218002-74.250074 31.218002-26.935466 0-53.840232-10.437723-74.372871-31.279401L13.543969 108.381821c-18.030655-18.374486-18.030655-48.187489 0-66.592674 18.061354-18.373463 47.28084-18.373463 65.342194 0l424.047856 432.268074c5.094018 5.219885 12.999059 5.15644 18.061354 0.064468l424.111301-432.329473c18.059308-18.373463 47.309492-18.373463 65.341171 0C1028.480546 60.194332 1028.480546 90.007335 1010.448868 108.381821z"  horiz-adv-x="1024" />

    
    <glyph glyph-name="cnxia" unicode="&#58892;" d="M0.020978 635.984171 511.996418-35.984171 1023.970836 635.984171Z"  horiz-adv-x="1024" />

    
    <glyph glyph-name="cnyoujiantou" unicode="&#58893;" d="M560.368102-198.452449l432.392918 424.170652c20.780279 20.470217 31.218002 47.344285 31.218002 74.250074 0 26.935466-10.437723 53.840232-31.278377 74.372871L560.368102 798.452449c-18.374486 18.030655-48.187489 18.030655-66.592674 0-18.373463-18.060331-18.373463-47.28084 0-65.342194l432.269098-424.049902c5.220908-5.094018 5.15644-12.999059 0.064468-18.061354L493.777475-133.111279c-18.373463-18.059308-18.373463-47.309492 0-65.341171C512.180614-216.484128 541.993616-216.484128 560.368102-198.452449z"  horiz-adv-x="1024" />

    
    <glyph glyph-name="cnyuanyoujiantou" unicode="&#58898;" d="M401.127332 574.66664c-9.968026-10.18599-9.968026-26.341948 0-36.279275l236.738819-238.362806-236.895385-238.269685c-9.937326-10.092869-9.937326-26.186406 0-36.154431 4.968152-5.125741 11.468193-7.531534 18.062378-7.531534 6.593162 0 13.093203 2.406816 17.935488 7.469112l272.736685 274.487561L437.093475 574.66664C427.157171 584.603967 411.064658 584.603967 401.127332 574.66664zM511.996418 812C229.697961 812 0.020978 582.260595 0.020978 300.024559c0-282.237059 229.740428-511.975441 511.975441-511.975441 282.393625 0 511.975441 229.738381 511.975441 511.975441C1023.971859 582.260595 794.390044 812 511.996418 812zM511.996418-143.641099c-244.862847 0-444.165032 199.020776-444.165032 443.665659S267.133571 743.75264 511.996418 743.75264c245.019413 0 444.259176-199.084221 444.259176-443.729104C956.255595 55.443122 756.952386-143.641099 511.996418-143.641099z"  horiz-adv-x="1024" />

    
    <glyph glyph-name="cnyuanzuojiantou" unicode="&#58900;" d="M509.854639-69.434004l-0.074701-0.075725c21.669532-24.282033 20.86419-61.554938-2.439562-84.857667s-60.57154-24.111141-84.854597-2.434445l-0.075725-0.074701-2.51324 2.51017L23.968389 262.081389C9.404696 273.394039 0.020978 291.063467 0.020978 310.936073c0 21.185508 10.67513 39.859823 26.924209 50.999534l0 0 393.532865 392.455323 0 0 2.506077 2.505054 0.079818-0.074701c24.249287 21.648043 61.46898 20.841677 84.743056-2.430352 23.274076-23.273053 24.079418-60.499909 2.430352-84.747149l0.079818-0.075725-2.51017-2.506077L212.434785 372.765257l753.255693 0 0-0.10847c32.497135-1.845021 58.280358-28.766161 58.280358-61.724807 0-32.952506-25.784246-59.880809-58.280358-61.724807l0-0.103354-753.84921 0"  horiz-adv-x="1024" />

    
    <glyph glyph-name="cndianhua" unicode="&#58901;" d="M512.012791 812C229.24259 812 0.020978 582.777365 0.020978 300.008186c0-282.735409 229.221612-511.959068 511.991814-511.959068 282.751782 0 511.959068 229.207285 511.959068 511.959068C1023.971859 582.777365 794.764574 812 512.012791 812L512.012791 812zM742.438834 27.787248c-41.732473-41.841967-197.367113-2.186805-351.108636 151.853523C237.586628 333.742499 198.057333 489.640128 239.743758 531.451396c36.232203 36.247552 80.32442 99.603509 146.431024 17.140379 66.152653-82.512249 33.607422-105.543801-3.671623-142.946666-26.140357-26.140357 28.341488-92.26231 85.307921-149.337213 57.012482-57.059554 122.94717-111.603821 149.087527-85.525885 37.32714 37.403888 60.340273 69.995167 142.633534 3.685949C841.808006 108.17409 778.640338 64.0348 742.438834 27.787248L742.438834 27.787248zM742.438834 27.787248"  horiz-adv-x="1024" />

    
    <glyph glyph-name="cnhuatong" unicode="&#58902;" d="M511.996418 811.950881C229.259986 811.950881 0.020978 582.711873 0.020978 299.974417c0-282.768155 229.239008-511.974417 511.975441-511.974417 282.737456 0 511.976464 229.206262 511.976464 511.974417C1023.972882 582.711873 794.733874 811.950881 511.996418 811.950881zM347.441619 467.623695c0 84.934414 72.620971 152.336524 164.086126 152.336524 90.526783 0 164.055426-67.433832 164.055426-152.336524l0-127.83755c0-84.902692-73.528644-152.303778-164.055426-152.303778-91.464131 0-164.086126 67.401086-164.086126 152.303778L347.441619 467.623695zM767.98465 331.035854c0-122.556267-99.93199-222.363414-228.176816-236.362242l0-56.029084 85.808318 0c18.84316 0 31.124881-13.998829 31.124881-29.747511 0-16.655332-12.281721-28.904307-31.124881-28.904307L393.65822-20.007291c-16.96744 0-32.029484 12.248975-32.029484 28.904307 0 15.749706 15.062044 29.747511 32.029484 29.747511l84.871993 0L478.530213 94.672588C353.129154 111.298244 256.00921 209.354514 256.00921 331.035854l0 41.155329c0 14.905478 13.187347 28.02938 30.18651 28.02938 16.936741 0 31.092136-13.123902 31.092136-28.02938 0-2.62478-1.874697-5.249561-1.874697-6.124488l0-24.498974c0-98.93222 88.620363-181.210132 196.114586-181.210132 107.463524 0 195.178261 82.276888 195.178261 181.210132l0 21.874193c-1.904373 2.62478-1.904373 5.281283-1.904373 8.78099 0 14.874779 14.154371 27.998681 31.122835 27.998681 16.998139 0 32.060183-13.123902 32.060183-27.998681L767.98465 331.035854z"  horiz-adv-x="1024" />

    
    <glyph glyph-name="cnshu" unicode="&#58903;" d="M511.996418 812C229.243613 812 0.020978 582.777365 0.020978 300.024559c0-282.767132 229.222635-511.975441 511.975441-511.975441 282.752806 0 511.974417 229.208309 511.974417 511.975441C1023.972882 582.777365 794.749224 812 511.996418 812L511.996418 812zM305.567929 524.012983l0-0.046049c-1.468444 0.016373-2.937912 0.046049-4.420683 0.046049L305.567929 524.012983 305.567929 524.012983zM497.387699 44.037351c-1.420349 0.593518-2.842745 1.296529-4.186346 2.15406-99.854219 62.559824-224.38035 52.576449-276.69074 44.61001-13.155624-2.00261-24.966625 8.464789-24.966625 22.122857L191.543989 489.139731c0 10.078543 6.592139 18.890232 16.045441 21.578458 146.977469 41.668005 256.660544-26.047236 289.924135-50.453089L497.387699 44.037351 497.387699 44.037351zM831.514569 112.924277c0-13.658068-11.812023-24.125467-24.952298-22.122857-52.309366 7.982812-176.85187 17.949814-276.706089-44.61001-1.156336-0.74906-2.359744-1.3743-3.609201-1.918699l0.10847 416.58693c34.201963 24.888853 143.305847 91.182722 289.11163 49.858548 9.470699-2.688225 16.047488-11.500938 16.047488-21.578458L831.514569 112.924277 831.514569 112.924277 831.514569 112.924277z"  horiz-adv-x="1024" />

    
    <glyph glyph-name="cnzuojiantou" unicode="&#58883;" d="M703.619202 798.452449l-432.392918-424.170652c-20.780279-20.470217-31.218002-47.344285-31.218002-74.250074 0-26.935466 10.437723-53.840232 31.278377-74.372871L703.619202-198.452449c18.374486-18.030655 48.187489-18.030655 66.592674 0 18.373463 18.060331 18.373463 47.28084 0 65.342194L337.942779 290.939647c-5.220908 5.094018-5.15644 12.999059-0.064468 18.061354L770.20983 733.111279c18.373463 18.059308 18.373463 47.309492 0 65.341171C751.806691 816.484128 721.993688 816.484128 703.619202 798.452449z"  horiz-adv-x="1024" />

    
    <glyph glyph-name="jiahao" unicode="&#58910;" d="M32.219055 364C14.424962 364 0 350.301758 0 331.700195L0 268.299805C0 250.461115 14.905762 236 32.219055 236L448 236 448-179.780947C448-197.57504 461.698242-212 480.299805-212L543.700195-212C561.538885-212 576-197.09424 576-179.780947L576 236 991.780947 236C1009.57504 236 1024 249.698242 1024 268.299805L1024 331.700195C1024 349.538885 1009.09424 364 991.780947 364L576 364 576 779.780945C576 797.575038 562.301758 812 543.700195 812L480.299805 812C462.461115 812 448 797.094238 448 779.780945L448 364 32.219055 364Z"  horiz-adv-x="1024" />

    
    <glyph glyph-name="cnkuaidi" unicode="&#58907;" d="M415.132812 574.508028 191.701067 574.508028c-69.25327 0-189.496865-203.431226-189.496865-284.674575l0-223.670176c0-22.453385 19.633153-40.664142 43.836391-40.664142l15.509229 0c10.784624 80.241532 84.569094 142.334729 173.981497 142.334729 89.423659 0 163.213245-62.093197 174.004009-142.334729l5.596462 0c24.215518 0 43.842531 18.210757 43.842531 40.664142L458.974319 533.837746C458.975343 556.296247 439.34833 574.508028 415.132812 574.508028L415.132812 574.508028zM367.053794 269.497289 92.00239 269.497289l0 20.335141c0 61.990866 87.639013 181.747367 123.030058 183.005011 82.926688 2.956332 152.020322 0 152.020322 0L367.05277 269.497289 367.053794 269.497289zM235.532341 106.833559c-60.518329 0-109.588931-45.518706-109.588931-101.669564s49.070602-101.669564 109.588931-101.669564c60.540841 0 109.606327 45.518706 109.606327 101.669564C345.132528 61.313829 296.068066 106.833559 235.532341 106.833559L235.532341 106.833559zM956.037119 696.507616 570.688657 696.507616c-36.314067 0-65.757656-27.307949-65.757656-60.999282l0-549.008892c0-33.686217 29.443589-60.999282 65.757656-60.999282l17.622356 0c10.790764 80.241532 84.575234 142.334729 173.992753 142.334729 89.423659 0 163.208129-62.093197 173.992753-142.334729l19.7406 0c36.320207 0 65.757656 27.314089 65.757656 60.999282L1021.794775 635.50731C1021.794775 669.199667 992.356302 696.507616 956.037119 696.507616L956.037119 696.507616zM762.303766 106.833559c-60.524468 0-109.595071-45.518706-109.595071-101.669564s49.070602-101.669564 109.595071-101.669564S871.897813-50.987886 871.897813 5.162972 822.827211 106.833559 762.303766 106.833559L762.303766 106.833559zM762.303766 106.833559"  horiz-adv-x="1024" />

    
    <glyph glyph-name="cnkuajing" unicode="&#58908;" d="M661.007709 599.479769c47.971571-31.507598 96.312556-63.254649 145.936767-95.846952-14.765285-15.844873-26.743084-30.269397-40.520879-42.730197-6.008854-5.412266-15.617699-9.18929-23.738657-9.467629-17.281595-0.579191-34.83539 3.412726-51.947116 1.879813-8.167007-0.721431-15.58393-9.773598-23.341614-15.049764 4.793166-5.298679 42.525536-29.145807 54.92903-38.050618 9.018398-6.490831 17.281595-15.811104 22.273283-25.680892 9.541307-18.838044 24.52865-58.540278 24.52865-58.540278s26.487258 11.943007 26.061562 29.713742c-0.369414 15.254425 1.067308 30.610158 2.595105 45.835931 0.556679 5.503341 2.140757 12.647041 5.957689 15.759939 16.390295 13.374612 33.785477 25.527396 52.486398 39.356356 4.447289-7.320733 8.200776-12.647041 11.085476-18.400069 20.041452-39.890522 39.623439-80.024591 60.074214-119.716592 3.356444-6.514367 9.592472-14.953573 15.611559-15.987113 13.136182-2.254344 29.894867 17.252943 28.237111 31.019481-7.013741 58.154491-14.044878 116.314099-21.910009 174.355003-2.100848 15.486716-0.737804 27.867698 12.079106 38.862099 70.64292 60.624752 90.321098 134.124743 12.510942 98.880031-24.01188-10.880815-46.50108-25.726941-68.052932-41.10007-10.926864-7.80271-19.894096-10.148128-32.830733-6.815219-53.833069 13.891382-107.943454 26.640754-161.906483 39.986713C677.761278 635.99645 673.52479 633.849554 661.007709 599.479769L661.007709 599.479769zM698.296987 273.054301c4.270257 2.828418 7.201006 9.94449 8.762571 13.601786 19.825534 46.557362-50.180889 117.665887-91.746564 90.468454-71.239508-62.703087-135.061069-125.980249-216.795605-171.158195C247.867274 122.687642 85.801155 102.634934 90.923826 102.577628c-35.511795-2.140757-44.615127 21.35947-15.537881 42.258453 30.003338 21.564132-63.117526-10.517541-73.578786-58.699913-0.857531-10.55745 6.439666-58.404178 118.574582-51.334155 66.724681 6.258541 170.07349 22.284539 233.145991 44.831045C489.617224 128.269777 574.292742 174.436236 698.296987 273.054301L698.296987 273.054301zM587.491345 780.996892C588.740802 780.860792 588.644611 780.877165 587.491345 780.996892L587.491345 780.996892 587.491345 780.996892zM582.021773 781.621109c1.311879-0.153496 2.606361-0.312108 3.901867-0.460488 0.647753-0.068562 1.169639-0.119727 1.567705-0.164752C586.525344 781.110479 584.747861 781.309 582.021773 781.621109L582.021773 781.621109zM976.154295 279.352751c-9.790994-1.3743-19.059078-1.697665-26.640754-31.331589-3.242857-12.681834-4.219091-22.165836-22.466688-56.183604-18.297738-20.956288-31.530111-27.328415-60.675918-17.815761C761.988588 263.479225 651.455145 187.043369 705.174628 66.486642c50.011021-110.652146-99.913571-162.616658-114.071012-42.530652 17.980513 161.957649-138.724505 118.376061-175.399799 29.906124-42.065048-73.885777-60.778248-110.328781-123.356492-83.187631-24.857131 16.560164-47.87538 35.69906-68.51342 57.19463-22.852474-5.582135-48.267307-8.722662-75.077929-8.722662-3.418866 0-6.820336 0.056282-10.199293 0.158612 10.029424-13.925151 39.85573-50.697659 52.31039-61.158918 86.606497-85.772502 205.374484-138.753157 336.545966-138.753157 208.487382 0 385.851928 133.681652 452.144774 320.428893l-0.397043 0c10.472516 28.67918 18.372439 58.591443 23.228027 89.51985l5.354961 34.710546C1007.741711 264.052277 999.103983 282.572072 976.154295 279.352751L976.154295 279.352751zM101.169167 164.792599c40.225143-0.675382 27.163663 67.144236 30.093389 93.183286 11.210319 81.711 73.284073 174.906565 197.043748 99.009991-10.234085 5.54325 55.564503-47.296189 116.262934-32.67826 62.742996 15.106046 99.356892 66.531276 97.011474 182.919053 0.334621 93.706195 96.374978 155.602917 148.032498 147.963936 0 0 52.481282-5.287423 56.717769 39.418778 2.873444 30.241768-10.904351 42.656519-10.904351 42.656519-14.101159 6.786567-43.388183 31.286564-149.502989 43.893696-8.592702 0.880043-37.8347 3.685949-59.074444 3.663436-0.278339 0-0.550539 0.011256-0.835018 0.011256-266.323625 0-482.22179-215.187991-482.22179-480.642828C43.793412 231.403692 48.518017 165.667525 101.169167 164.792599L101.169167 164.792599zM101.169167 164.792599"  horiz-adv-x="1024" />

    
    <glyph glyph-name="cncangpei" unicode="&#58909;" d="M853.318664-211.957021 853.318664 356.901964c0 62.83714-50.942229 113.778346-113.778346 113.778346L284.453539 470.680311c-62.83714 0-113.77323-50.942229-113.77323-113.778346l0-568.858986L0.021487-211.957021 0.021487 641.340155 284.453539 812l455.086779 0 284.438191-170.659845 0-853.297177L853.318664-211.957021 853.318664-211.957021zM739.540318 243.134875 284.453539 243.134875 284.453539 356.901964l455.086779 0L739.540318 243.134875 739.540318 243.134875zM739.540318 72.47503 284.453539 72.47503 284.453539 186.24826l455.086779 0L739.540318 72.47503 739.540318 72.47503zM739.540318-98.183791 284.453539-98.183791 284.453539 15.583299l455.086779 0L739.540318-98.183791 739.540318-98.183791zM739.540318-98.183791"  horiz-adv-x="1024" />

    
    <glyph glyph-name="cnfanyeyoujiantou" unicode="&#58911;" d="M415.18807 50.048251 632.635521 263.361545c10.450003 10.29446 15.699564 23.809265 15.699564 37.33942 0 13.545504-5.249561 27.075659-15.72924 37.401842L415.18807 551.385401c-9.240455 9.067516-24.232914 9.067516-33.488719 0-9.239432-9.082866-9.239432-23.777543 0-32.860409l217.385029-213.251895c2.625804-2.561335 2.593058-6.53688 0.032746-9.082866L381.700375 82.90866c-9.239432-9.081843-9.239432-23.791869 0-32.859385C390.955156 40.980735 405.947616 40.980735 415.18807 50.048251z"  horiz-adv-x="1024" />

    
    <glyph glyph-name="cnfanyezuojiantou" unicode="&#58912;" d="M607.916537 551.385401 390.468063 338.07313c-10.450003-10.29446-15.699564-23.809265-15.699564-37.33942 0-13.545504 5.248537-27.075659 15.72924-37.401842l217.417775-213.282594c9.240455-9.067516 24.232914-9.067516 33.488719 0 9.239432 9.082866 9.239432 23.777543 0 32.860409L424.020226 296.160555c-2.625804 2.561335-2.593058 6.53688-0.032746 9.082866l217.416751 213.282594c9.239432 9.081843 9.239432 23.791869 0 32.859385C632.149451 560.45394 617.156992 560.45394 607.916537 551.385401z"  horiz-adv-x="1024" />

    
    <glyph glyph-name="cnnew" unicode="&#58913;" d="M921.325549 504.663286 102.674451 504.663286c-56.516178 0-102.331643-45.815465-102.331643-102.331643l0-204.663286c0-56.516178 45.815465-102.331643 102.331643-102.331643l818.651099 0c56.516178 0 102.331643 45.815465 102.331643 102.331643L1023.657192 402.331643C1023.657192 458.847821 977.841727 504.663286 921.325549 504.663286zM320.816726 176.249535l-32.460296 0-125.600603 187.074699 0-187.074699-30.340005 0L132.415822 414.314559l32.459273 0L290.476721 227.402565 290.476721 414.314559l30.340005 0L320.816726 176.249535zM553.095977 176.249535 374.645702 176.249535 374.645702 414.314559l172.903955 0 0-28.093848L406.290423 386.22071l0-72.913637 132.288932 0 0-27.931143L406.290423 285.375931l0-81.032548 146.805554 0L553.095977 176.249535zM817.021995 176.249535l-30.503734 0-50.402947 181.390233c-4.240581 15.156188-6.743588 24.466228-7.503904 27.931143-2.501984-10.93505-4.840238-20.24509-7.013741-27.931143l-50.729381-181.390233-32.298614 0-63.452147 238.065024 32.459273 0 36.376489-156.058288c3.914146-16.34834 7.283894-32.587186 10.113335-48.717561 6.088672 25.439392 9.676383 40.111556 10.765181 44.007283l45.51052 160.767544 38.169321 0 34.254152-120.494305c8.589632-29.880541 14.787798-57.973366 18.596544-84.281545 3.043313 15.046694 7.013741 32.31601 11.907191 51.80283l37.517475 152.97302 31.807427 0L817.021995 176.249535z"  horiz-adv-x="1024" />

    
    <glyph glyph-name="cnyuyuepeisong" unicode="&#58921;" d="M143.514089-17.125661c-37.6986 0-68.26271 30.56411-68.26271 68.263733L75.25138 404.553241c0 37.6986 30.565133 68.263733 68.26271 68.263733l634.570593 0c37.696554 0 68.261687-30.565133 68.261687-68.263733l0-45.319162 75.231425-25.077142L921.577794 630.675258c0 37.6986-30.565133 68.263733-68.263733 68.263733l-44.581358 0 0-47.097668c0-36.431747-29.472242-65.962318-65.821101-65.962318-36.354999 0-65.831334 29.531594-65.831334 65.962318L677.080268 698.938991l-432.561763 0 0-47.097668c0-36.431747-29.473265-65.962318-65.830311-65.962318-36.348859 0-65.821101 29.531594-65.821101 65.962318L112.867092 698.938991 68.283688 698.938991c-37.697577 0-68.26271-30.565133-68.26271-68.263733l0-654.901641c0-37.6986 30.565133-68.26271 68.26271-68.26271l557.255717 0-60.394509 75.362408L143.514089-17.126684zM699.720917 282.958882l0 119.460766L563.193451 402.419647l0-119.460766L699.720917 282.958882zM170.15382 623.57556l17.065677 0c10.866489 0 19.682271 8.79941 19.682271 19.665899L206.901769 792.317729c0 10.882861-8.815783 19.682271-19.682271 19.682271l-17.065677 0c-10.866489 0-19.673062-8.79941-19.673062-19.682271l0-149.07627C150.480758 632.375993 159.287331 623.57556 170.15382 623.57556zM477.86404 402.419647l-119.460766 0-1.042749-118.027114 120.503515-1.433652L477.86404 402.419647zM734.377228 623.57556l17.064654 0c10.866489 0 19.675108 8.79941 19.675108 19.665899L771.116991 792.317729c0 10.882861-8.807596 19.682271-19.675108 19.682271l-17.064654 0c-10.874675 0-19.682271-8.79941-19.682271-19.682271l0-149.07627C714.694957 632.375993 723.502553 623.57556 734.377228 623.57556zM477.86404 61.102005 477.86404 180.563794l-119.460766 0 0-119.461789L477.86404 61.102005zM153.613098 61.102005l119.461789 0L273.074887 180.563794 153.613098 180.563794 153.613098 61.102005zM273.074887 402.419647 153.613098 402.419647l0-119.460766 119.461789 0L273.074887 402.419647zM827.71401 282.958882c-108.378359 0-196.256826-89.046059-196.256826-198.857047 0-39.181371 7.773034-73.271794 30.646997-106.378819 12.589736-18.222013 145.243989-178.124863 145.243989-178.124863 0.217964-0.382717 0.583285-0.582261 0.817622-0.949628 0.939395-1.482771 2.15099-2.666736 3.423983-3.917216 1.035586-1.032516 2.00875-2.048659 3.191692-2.882654 0.417509-0.298805 0.691755-0.733711 1.125637-0.99977 0.941442-0.533143 1.983167-0.582261 2.950192-0.984421 1.432629-0.615007 2.826372-1.181919 4.349051-1.480724 1.541099-0.333598 2.983961-0.333598 4.52506-0.333598 1.490957 0 2.933819 0 4.424776 0.316202 1.558495 0.317225 2.958378 0.916882 4.41659 1.51654 0.975211 0.400113 1.990331 0.432859 2.933819 0.982374 0.442068 0.268106 0.707105 0.717338 1.12359 1.000793 1.184989 0.817622 2.158153 1.850138 3.176342 2.883677 1.291412 1.232061 2.482541 2.432399 3.457752 3.916193 0.215918 0.366344 0.574075 0.583285 0.799202 0.949628l117.220748 142.776797c9.449209 9.41544 17.989723 19.748786 25.406646 30.947849l0.941442 1.100054c0.192382 0.333598 0.165776 0.649799 0.325411 0.966001 20.174482 31.265074 32.014134 68.546166 32.014134 108.695584C1023.970836 193.912823 936.08316 282.958882 827.71401 282.958882zM827.71401 42.203586c-36.683481 0-66.412572 30.131251-66.412572 67.296709 0 37.181831 29.730115 67.297732 66.412572 67.297732 36.681434 0 66.412572-30.115901 66.412572-67.297732C894.127605 72.334837 864.395444 42.203586 827.71401 42.203586z"  horiz-adv-x="1024" />

    
    <glyph glyph-name="cnzhinengwuliu" unicode="&#58922;" d="M978.153324 661.900424c-26.081005 0-47.88152 21.200858-48.66435 47.364751-0.799202 26.163893 19.701714 47.365774 45.782719 47.365774 26.096355 0 47.880497-21.200858 48.679699-47.365774S1004.233306 661.900424 978.153324 661.900424zM960.69879 571.317359l0.198521-6.329149c0.733711-24.415063-18.385742-44.200688-42.735313-44.200688L786.327414 520.787522l0-0.032746c-0.150426 0-0.299829 0.032746-0.432859 0.032746-17.386996 0-31.078833-14.122649-30.544667-31.576159 0.466628-15.289218 9.026584-61.554938 23.515576-64.469314l-0.051165-0.61603 44.834114 1.599428c24.133653 0 32.343639-11.292184 30.56104-33.525558 0 0-7.876388-46.049802-52.277644-46.049802l-327.509149 0c-35.074843 0-54.760185 31.743982-52.129264 66.851571l21.351284 286.139949c2.63092 35.123962 39.936571 57.491389 75.012438 57.491389l340.099908 0c24.347524 0 46.031383-3.031033 46.782489-27.447119l0.182149-6.311753c0.750083-24.415063-18.402115-44.200688-42.751686-44.200688 0 0-103.922884 0-69.281923 0l0 0-1.864464 0 0-0.199545c-16.47216-0.982374-29.178553-14.589276-28.662807-31.377638 0.51677-16.688077 12.507872-46.965661 28.894074-48.114834l121.878838-0.215918C938.283268 598.763454 959.966103 595.731398 960.69879 571.317359zM533.713023 678.671389l-14.889105-254.546394 165.511591 0 8.593725 254.546394L533.713023 678.671389zM412.202575 700.872017c-1.300622-17.554818-14.356986-37.023218-31.877011-37.023218l-100.792591 0-8.209986-58.789964 107.071597 0c17.537422 0 25.313525-15.521508 23.998577-33.075303l-1.01512-15.038508c-1.333368-17.570167-19.936051-36.157501-37.47245-36.157501l-69.282946 0c5.129834-29.112038 36.07359-65.085344 36.07359-65.085344l31.477922 0c17.71957 0 30.693046-10.109242 29.378098-27.663036l-3.3984-46.816259c-1.297552-17.554818-15.688307-35.074843-33.407877-35.074843 0 0-30.1773-0.132006-50.363038 0-43.469024 9.92607-76.977185 32.543184-105.023962 62.687738-32.208563-30.144554-70.913073-52.761668-115.41359-62.687738-6.311753-1.131777-50.396807 0-50.396807 0-17.552771 0-27.812439 17.520025-26.497491 35.074843l3.414773 46.816259c1.298576 17.553795 12.95608 27.663036 30.509874 27.663036l31.477922 0c0 0 58.372455 36.639478 68.74878 65.085344L49.002552 520.787522c-17.553795 0-30.04427 18.587334-28.744671 36.157501l1.032516 15.038508c1.313925 17.553795 18.351973 33.075303 35.889395 33.075303l111.101377 0 8.227382 58.789964L65.389778 663.848799c-17.520025 0-35.606962 19.4684-34.290991 37.023218l1.715061 3.246951C34.112424 721.690158 48.202327 737.694667 65.757145 737.694667l37.788651 0-4.496407 25.031093c1.313925 17.553795 16.604166 31.794124 34.125215 31.794124l63.519686 0c17.552771 0 30.710442-14.240329 29.378098-31.794124l3.431146-25.031093 144.861272 0c17.553795 0 38.83754-20.98494 37.521568-38.555108L412.202575 700.872017zM913.100726 192.64597c-26.081005 0-47.880497 21.199835-48.66435 47.363727-0.799202 26.163893 19.701714 47.349401 45.800116 47.349401 26.081005 0 47.865147-21.184485 48.665373-47.349401C959.700043 213.845805 939.181731 192.64597 913.100726 192.64597zM94.601076 287.358075l699.104375 0c24.365944 0 44.682665-19.785625 45.432749-44.199665l0.183172-6.311753c0.750083-24.400736-18.386766-44.200688-42.735313-44.200688 0 0-90.133833 0-66.135256 0-22.599717 0-40.387849-18.36937-39.687908-41.054021 0.683569-22.666232 18.22099-57.805544 40.83708-57.805544-94.631264 0 198.387349 0 198.387349 0 24.348548 0 44.702108-19.786649 45.432749-44.201711l0.199545-6.311753c0.732687-24.416086-18.403139-44.200688-42.751686-44.200688 0 0-318.482565 0-217.289861 0-22.618137 0-41.736567-35.141358-41.037648-57.823963 0.666172-21.784142 18.186198-39.438221 39.621393-40.785915l-0.016373-0.25071 37.20639 0c24.347524 0 44.700061-19.784602 45.430702-44.199665l0.201591-6.330172c0.731664-24.415063-18.404162-44.199665-42.751686-44.199665L58.978764-194.517837c-35.091216 0-61.405535 28.478612-58.773592 63.586201l26.614148 345.147878C29.450241 249.319737 59.52828 287.358075 94.601076 287.358075zM626.528941 192.64597 120.915395 192.64597l-11.456936-98.859565 511.923252 0L626.528941 192.64597zM605.993233-99.140583l5.661953 98.211812L106.02629-0.92877l-9.658987-98.211812L605.993233-99.140583zM867.868545-99.790382c26.096355 0 47.897893-21.217231 48.697095-47.364751 0.782829-26.14752-19.720134-47.364751-45.801139-47.364751-26.096355 0-47.897893 21.217231-48.679699 47.364751C821.2856-121.007613 841.786517-99.790382 867.868545-99.790382z"  horiz-adv-x="1024" />

    
    <glyph glyph-name="cnmeitilianxi" unicode="&#58923;" d="M510.959298 812c-282.184871 0-510.937808-228.754984-510.937808-510.935762 0-282.182824 228.752938-510.937808 510.937808-510.937808 282.181801 0 510.935762 228.754984 510.935762 510.937808C1021.895059 583.245016 793.141098 812 510.959298 812zM401.494187 417.067252c0 58.757219 48.299029 105.400538 109.150956 105.400538 60.2185 0 109.149932-46.64332 109.149932-105.400538l0-88.443331c0-58.757219-48.930409-105.400538-109.149932-105.400538-60.85295 0-109.150956 46.64332-109.150956 105.400538L401.494187 417.067252zM681.271218 322.565948c0-84.803431-66.493413-153.863297-151.807475-163.556053l0-38.767955 57.085136 0c12.546757 0 20.701484-9.688663 20.701484-20.594037 0-11.511171-8.154727-19.99131-20.701484-19.99131L432.230212 79.656593c-11.288091 0-21.324678 8.480138-21.324678 19.99131 0 10.905374 10.036587 20.594037 21.324678 20.594037l56.459896 0 0 38.767955c-83.429131 11.510148-148.043754 79.356372-148.043754 163.556053l0 28.471448c0 10.3006 8.783037 19.383466 20.074198 19.383466 11.290137 0 20.698414-9.082866 20.698414-19.383466 0-1.819438-1.25355-3.635807-1.25355-4.239558l0-16.959254c0-68.452022 58.966996-125.391848 130.479727-125.391848 71.510684 0 129.851417 56.94085 129.851417 125.391848l0 15.140839c-1.25662 1.819438-1.25662 3.635807-1.25662 6.057973 0 10.3006 9.4093 19.383466 20.703531 19.383466 11.292184 0 21.326724-9.082866 21.326724-19.383466l0-0.604774 0.002047 0L681.272241 322.565948z"  horiz-adv-x="1024" />

    
    <glyph glyph-name="cnshangjiafuwu" unicode="&#58924;" d="M536.462135 154.857319c-1.125637 5.262864-2.254344 10.527774-3.353374 15.654538-1.156336 5.154393-2.148943 9.359158-3.006474 12.562107 2.790556 2.397606 5.234211 4.930289 7.247054 7.717775 1.961678 2.814092 2.954285 5.655813 2.954285 8.580422 0 2.366907-0.780783 4.792143-2.336208 7.270591-1.529843 2.5071-3.302209 4.652973-5.316076 6.380314-2.25332 2.059915-4.671393 4.093225-7.219425 6.240121l-21.26021 0c-2.844791-2.089591-5.234211-4.123924-7.248078-6.240121-1.688455-1.757017-3.27458-3.845585-4.668323-6.185886-1.424442-2.310625-2.121314-4.679579-2.121314-7.019881 0-1.75497 1.074472-4.095271 3.194762-7.101745 2.12029-2.899026 4.724605-5.712095 7.889691-8.388041-0.857531-2.645247-2.038426-6.405897-3.40761-11.394515-1.450025-5.012154-2.764973-10.166547-4.024663-15.682167-1.289366-5.431709-2.418073-10.613732-3.384074-15.403828-1.020236-4.848425-1.476631-8.496511-1.476631-10.809183 0-1.475608 1.074472-3.453658 3.194762-6.185886 2.148943-2.645247 4.671393-5.262864 7.677866-7.910157 2.954285-2.645247 5.876847-4.930289 8.698103-6.823406 2.683109-1.865487 4.832052-2.868327 6.254447-2.868327s3.596921 0.944512 6.603395 2.895957c2.979868 1.865487 5.932106 4.151553 8.751315 6.825452 2.790556 2.645247 5.287423 5.262864 7.380084 7.912204 2.121314 2.729158 3.221368 4.707209 3.221368 6.182816 0 1.75497-0.429789 4.847401-1.235131 9.222035C538.557866 144.716354 537.590841 149.53408 536.462135 154.857319zM511.669472 812c-282.572704 0-511.644913-229.072209-511.644913-511.644913 0-282.57475 229.072209-511.645936 511.644913-511.645936s511.644913 229.072209 511.644913 511.645936C1023.314385 582.927791 794.242176 812 511.669472 812zM680.742169 122.320275c-0.964978-6.129604-2.496867-10.893094-4.454452-14.097066-1.422396-2.058892-5.476735-4.260024-12.132318-6.600325-6.738471-2.368954-14.84408-4.652973-24.426319-6.853082-9.691733-2.174526-20.482497-4.207835-32.533974-6.157233-12.0525-1.951445-24.025183-3.566222-35.917024-5.072529-11.890818-1.558495-23.433712-2.699482-34.653241-3.535523-11.167341-0.948605-20.911262-1.364067-29.097712-1.364067-12.428054 0-27.192316 1.000793-44.184315 2.895957-16.991999 1.921769-33.580816 4.151553-49.738821 6.853082-16.161075 2.617617-30.333866 5.321192-42.519396 8.133238-12.187577 2.814092-19.541055 5.208629-22.119787 7.242961-3.112897 2.397606-5.447059 9.555633-7.006578 21.617343-1.557472 12.062733-0.938372 27.439956 1.932002 46.27186 1.691525 10.862395 5.960759 19.110243 12.751419 24.682146 6.791683 5.626137 14.815427 9.998725 24.050766 13.229303 9.207709 3.287883 18.709107 6.213515 28.507264 8.831132 9.798157 2.675946 18.359137 6.490831 25.742291 11.42112 5.933129 3.900843 10.522658 7.549953 13.797237 11.032264 3.248997 3.50994 5.503341 7.04751 6.764054 10.613732 1.289366 3.50994 1.906419 7.186679 1.906419 11.003612 0 3.844561-0.135076 7.940856-0.402159 12.367679-0.562818 7.048533-2.764973 12.507872-6.576789 16.296151-3.840468 3.816932-8.160867 7.79964-12.991895 11.895935-2.227738 2.059915-4.241604 4.930289-5.933129 8.608052-1.691525 3.648087-3.221368 7.383154-4.671393 11.254322-1.420349 4.372587-2.844791 8.915044-4.238534 13.648858-1.987261 0.557702-3.973498 1.614777-5.960759 3.092431-1.690502 1.450025-3.517103 3.50994-5.528923 6.185886-1.987261 2.645247-3.704368 6.434549-5.047969 11.420097-1.447978 5.04183-1.957585 9.498328-1.529843 13.425777 0.429789 4.013407 1.209548 7.411807 2.336208 10.364045 1.153266 3.231601 2.844791 6.324032 5.099135 9.276271-0.294712 11.143805 0.294712 22.314215 1.719154 33.485649 1.125637 9.414417 3.194762 19.386536 6.144954 29.972639 2.980891 10.587126 7.303336 20.141736 12.939707 28.637224 5.423523 7.967462 11.435447 14.485923 18.117636 19.586081 6.658653 5.180999 13.369495 9.219989 20.160155 12.143575 6.791683 2.926656 13.664208 5.016247 20.615527 6.185886 6.89913 1.169639 13.609972 1.75497 20.080338 1.75497 8.237615 0 16.077164-1.031493 23.593348-3.092431 7.516184-2.061962 14.547321-4.679579 21.070898-7.938809 6.52153-3.204995 12.347213-6.797823 17.448394-10.752902 5.072529-3.983731 9.204639-7.995091 12.292977-12.116969 7.114025-9.388834 12.428054-19.72218 15.969717-31.089066 3.545756-11.310603 6.040576-21.950941 7.410783-31.950689 1.717108-11.755742 2.442632-23.541159 2.092661-35.269271 2.041496-1.168616 3.651157-2.923586 4.696975-5.262864 1.128707-2.089591 2.095731-4.707209 2.791579-7.940856 0.644683-3.257184 0.833995-7.212262 0.242524-11.919471-0.912789-6.185886-2.202155-11.059893-4.054339-14.736633-1.823532-3.676739-3.862981-6.547113-6.144954-8.607028-2.551102-2.340301-5.208629-4.013407-8.055466-4.848425-1.153266-4.707209-2.415003-9.219989-3.837398-13.677511-1.50426-3.814886-3.087315-7.605212-4.940522-11.281951-1.797949-3.650133-3.917216-6.51846-6.172583-8.580422-2.551102-2.366907-4.991688-4.318352-7.248078-5.906523-2.254344-1.614777-4.267187-3.343141-5.932106-5.068436-1.744737-1.782599-3.112897-3.900843-4.213975-6.407943-1.181919-2.509147-2.039449-5.487991-2.629897-8.997931-0.833995-4.428869-1.046842-8.94165-0.833995-13.45443 0.349971-4.596691 1.424442-9.136078 3.409656-13.677511 1.959631-4.569062 5.208629-8.912997 9.770528-13.009292 4.50971-4.095271 10.602476-7.772011 18.253736-11.059893 7.086395-2.868327 14.817474-5.430686 23.137976-7.659447 8.375761-2.228761 16.429181-4.876054 24.26566-7.940856 7.731078-3.061732 14.684444-6.991228 20.803815-11.641131 6.173606-4.792143 10.495028-10.977006 13.045107-18.608823 1.343601-4.374634 2.496867-10.030447 3.221368-16.910135 0.644683-6.965645 1.020236-13.845333 1.020236-20.727067C682.2188 135.051227 681.736822 128.475462 680.742169 122.320275z"  horiz-adv-x="1024" />

    
    <glyph glyph-name="cnwuliudinggou" unicode="&#58925;" d="M633.565706 185.415288 407.480528 185.415288c-4.152577 0-7.522324-3.415796-7.522324-7.621585l0-15.275915c0-4.213975 3.369747-7.622608 7.522324-7.622608l226.084155 0c4.148483 0 7.522324 3.409656 7.522324 7.622608l-0.00307 15.275915C641.083937 181.999492 637.71419 185.415288 633.565706 185.415288zM520.341992 495.762569c-10.422374 0-18.833951-8.572236-18.833951-19.092847 0-10.517541 8.411577-19.049868 18.833951-19.049868 10.381441 0 18.803251 8.532327 18.803251 19.049868C539.145244 487.191356 530.723434 495.762569 520.341992 495.762569zM633.565706 261.805096 407.480528 261.805096c-4.152577 0-7.522324-3.415796-7.522324-7.621585l0-15.277962c0-4.249791 3.369747-7.658424 7.522324-7.658424l226.084155 0c4.148483 0 7.522324 3.409656 7.522324 7.658424l-0.00307 15.277962C641.083937 258.3893 637.71419 261.805096 633.565706 261.805096zM512.001023 811.141446c-282.294364 0-511.142469-228.846058-511.142469-511.140423 0-282.296411 228.848105-511.142469 511.142469-511.142469 282.296411 0 511.140423 228.846058 511.140423 511.142469C1023.141446 582.295388 794.296411 811.141446 512.001023 811.141446zM445.043029 490.975543l30.112832 0c0 16.833387 13.494339 30.518061 30.112832 30.518061l30.112832 0c16.610306 0 30.114878-13.68672 30.114878-30.518061l30.112832 0 0-61.004399L445.043029 429.971144 445.043029 490.975543zM716.458625 139.545588c0-37.201274-32.973996-61.040215-62.162782-61.040215L386.747321 78.505373c-24.204262 0-62.162782 30.847565-62.162782 62.966077L324.58454 397.526197c0 27.037796 27.325345 62.958914 56.502875 62.958914l33.837666 0 0-60.996213 210.79903 0 0 60.996213 29.607318 0c29.187763 0 61.127196-27.360138 61.127196-63.173808L716.458625 139.545588zM633.565706 338.194904 407.480528 338.194904c-4.152577 0-7.522324-3.451612-7.522324-7.661494l0-15.272845c0-4.212952 3.369747-7.622608 7.522324-7.622608l226.084155 0c4.148483 0 7.522324 3.409656 7.522324 7.622608l-0.00307 15.272845C641.083937 334.743292 637.71419 338.194904 633.565706 338.194904z"  horiz-adv-x="1024" />

    
    <glyph glyph-name="cnwuliuhezuo" unicode="&#58926;" d="M511.75543 812c-282.34246 0-511.221264-228.881874-511.221264-511.221264 0-282.340413 228.878804-511.223311 511.221264-511.223311 282.33939 0 511.219217 228.881874 511.219217 511.223311C1022.97567 583.118126 794.09482 812 511.75543 812zM345.545944 220.859545c-5.437849 0-10.553357 1.896186-14.413268 5.345752-3.877307 3.460822-6.024204 8.075933-6.039553 12.986779-0.023536 4.925173 2.084475 9.546424 5.937223 13.037944l53.535287 48.50676c3.865028 3.5038 9.021467 5.435803 14.513552 5.435803 5.434779 0 10.558473-1.898233 14.413268-5.343705 3.876284-3.465938 6.025227-8.075933 6.040576-12.994965l0.00307 0.002047c0.01535-4.91801-2.087545-9.544377-5.935176-13.030781l-53.538357-48.507784C356.196515 222.788477 351.035982 220.859545 345.545944 220.859545zM391.71752 182.933771c-5.435803 0-10.555403 1.90028-14.408151 5.345752-3.87833 3.465938-6.025227 8.076956-6.042623 12.993942-0.023536 4.912893 2.087545 9.541307 5.937223 13.029758l53.531194 48.507784c3.868097 3.504824 9.024537 5.435803 14.518668 5.435803 5.433756 0 10.553357-1.896186 14.413268-5.343705 3.877307-3.463891 6.024204-8.076956 6.042623-12.993942 0.020466-4.91801-2.090615-9.544377-5.938246-13.030781l-53.538357-48.502667C402.366044 184.862703 397.209604 182.933771 391.71752 182.933771zM436.597683 145.669052c-5.434779 0-10.550287 1.901303-14.411221 5.343705-3.875261 3.465938-6.024204 8.076956-6.04467 12.993942-0.020466 4.91801 2.092661 9.53926 5.942339 13.034874l53.530171 48.504714c3.871167 3.5038 9.026584 5.437849 14.518668 5.437849 5.433756 0 10.555403-1.898233 14.409175-5.345752 8.007371-7.148817 8.05342-18.822694 0.109494-26.025747l-53.53324-48.504714C447.246207 147.601054 442.091814 145.669052 436.597683 145.669052zM496.121358 113.7112c-3.870144-3.501754-9.028631-5.435803-14.516622-5.435803-5.433756 0-10.553357 1.895163-14.411221 5.345752-3.87833 3.457752-6.025227 8.073886-6.04467 12.988826-0.022513 4.915963 2.089591 9.543354 5.940292 13.032828l53.53324 48.504714c3.870144 3.508917 9.021467 5.437849 14.518668 5.437849 5.433756 0 10.550287-1.898233 14.409175-5.340635l0.00307 0.002047c8.004301-7.148817 8.046257-18.826787 0.104377-26.024723L496.121358 113.7112zM553.759079 103.299059c-9.375531-8.407484-23.481807-9.390881-31.448246-2.205225l-7.715729 6.967692 33.82948 30.648021 7.902994-7.134491C564.290947 124.385307 563.135634 111.701426 553.759079 103.299059zM699.278337 234.587198c-9.600659-8.527211-23.822568-9.651824-31.758308-2.486634l-71.942519 61.210084-6.979972-6.641257-5.352915-4.805446 69.644173-62.736856c7.961322-7.189749 6.67298-19.99745-2.873444-28.555359-4.774747-4.272303-10.81737-6.821359-17.026792-7.16519-5.786797-0.322341-11.016915 1.346671-14.724353 4.692882l-71.174016 64.206324-12.415774-11.142781 70.088288-65.285912 0.095167-0.089028c3.704368-3.350304 5.54018-8.055466 5.15644-13.261025-0.407276-5.584182-3.255137-11.013845-8.027837-15.292288-4.7727-4.275373-10.82044-6.823406-17.033955-7.167237-5.783727-0.323365-11.013845 1.341554-14.721283 4.690836l-7.592932 6.852058c14.208607 13.407358 13.951757 34.710546-0.729617 47.823192-7.164167 6.398734-16.667611 9.920954-26.762527 9.920954-2.476401 0-4.910846-0.212848-7.286963-0.627287 1.252527 10.030447-2.399653 20.458961-10.958586 28.107151-7.16212 6.396687-16.667611 9.923-26.765597 9.923-2.412956 0-4.795213-0.209778-7.113001-0.604774 0.148379 1.25969 0.230244 2.527566 0.221034 3.810792-0.037862 9.129938-4.021593 17.700127-11.219529 24.13263-7.167237 6.396687-16.675798 9.92607-26.770713 9.92607-2.907213 0-5.760191-0.302899-8.535397-0.868787 0.23843 1.554402 0.354064 3.140527 0.353041 4.738931-0.038886 9.124821-4.019547 17.697057-11.224646 24.12649-7.167237 6.40078-16.670681 9.924024-26.765597 9.924024-10.197246 0-19.774369-3.585665-26.960025-10.094916l-33.982976-30.792307 2.518357 2.615571c-9.559727 7.467065-36.112476 29.544897-44.088124 41.87062-0.322341 0.496304-0.750083 1.131777-1.26583 1.896186-34.18866 50.699706-28.647457 99.304703 16.035208 140.560316 31.967062 29.518291 68.558445 33.924647 93.623307 32.42141 33.214473-1.987261 59.951417-14.670118 72.760141-24.923646 4.264117-3.418866 11.555174-9.674337 21.699208-18.619056C452.208219 415.040083 393.900232 360.46 390.536624 357.311287l-5.832845-5.463432 5.832845-5.464455c1.577938-1.477654 39.168068-36.228109 81.291444-36.228109 1.687432 0 3.378957 0.054235 5.03262 0.166799 3.414773 0.1361 38.963407 2.136663 66.886363 26.332738l42.1244 35.158754 59.736523-56.017828-0.084934-0.068562 54.910611-52.265364 0.153496-0.148379C708.317201 256.338594 707.674565 242.67541 699.278337 234.587198zM750.46923 383.34829c-1.555425-25.797549-12.769838-46.716998-21.890566-56.793494-6.664793-7.353478-24.468275-24.616654-34.054607-33.839713l-107.937315 101.213169-54.829769-45.763276-0.124843-0.107447c-23.760147-20.624736-55.290257-21.969361-55.577806-21.979594l-0.378623-0.01842c-1.257643-0.084934-2.554172-0.130983-3.847631-0.130983-25.818015 0-51.14382 17.308201-62.472843 26.215058 24.204262 22.558785 112.945375 104.911398 147.158594 131.634016 12.68695 9.908674 38.57455 21.48636 69.786413 21.48636l0.005117 0c32.53909 0 61.878303-12.325723 87.191828-36.627199C746.401588 437.041166 751.765759 404.815207 750.46923 383.34829z"  horiz-adv-x="1024" />

    
    <glyph glyph-name="cnchuan" unicode="&#58899;" d="M511.156794 811.141446c-282.295388 0-511.141446-228.849128-511.141446-511.144516 0-282.292318 228.846058-511.138376 511.141446-511.138376s511.141446 228.846058 511.141446 511.138376C1022.29824 582.292318 793.452181 811.141446 511.156794 811.141446zM511.156794-149.184349C263.079742-149.184349 61.971421 51.922948 61.971421 300S263.079742 749.185372 511.156794 749.185372 960.342166 548.077052 960.342166 300 759.233845-149.184349 511.156794-149.184349zM627.845423 92.931944c-71.553663-49.4042-162.069189-49.39192-233.616712 0.00921 0 0-78.926584-87.175455-146.012492-87.175455l29.203112 0c40.875966 0 80.304977 15.969717 116.809379 34.859949 73.006757-37.775348 160.609954-37.766139 233.616712 0.00921 36.504402-18.893302 75.927273-34.869159 116.809379-34.869159l29.206182 0C708.611911 5.765699 627.845423 92.931944 627.845423 92.931944zM797.616014 312.772908l-52.325739 17.010419L745.290275 463.484422c0 31.973202-26.913976 58.545394-59.038628 58.545394l-87.609337 0-21.898753 72.201415-131.412982 0-21.901823-72.201415-87.606267 0c-32.121582 0-58.840106-26.573215-58.840106-58.542324l0-133.699048-52.136428-17.081027c-7.29822-2.90005-14.492062-7.261381-17.418718-14.525831-2.921539-7.267521-4.321422-14.290471-1.409093-23.004947l69.942979-189.047634 1.459235 0c46.721091 0 87.603197 25.910113 116.809379 57.889455 29.200042-31.978319 70.079078-58.251705 116.809379-58.251705 46.727231 0 87.603197 26.337855 116.806309 58.310034 29.206182-31.973202 70.082148-57.947783 116.809379-57.947783l1.453095 0 70.184479 189.044564c2.90926 7.261381 1.453095 15.858176-1.465374 23.125697C811.903415 305.563716 804.914234 309.866718 797.616014 312.772908zM686.41026 348.679699l-175.274956 56.67786-175.268816-56.67786L335.866489 463.456792l350.543771 0L686.41026 348.679699z"  horiz-adv-x="1024" />

    
    <glyph glyph-name="cnertong" unicode="&#58927;" d="M935.555645 428.055514c-23.153326 54.742788-56.293097 103.899348-98.502431 146.108682-35.173081 35.173081-75.181283 64.020082-119.214149 86.069261 25.794479 58.20975-4.937452 119.686916-90.195232 150.353356 29.609365-44.853557 1.363044-84.721567-39.042201-108.11844-25.134447 4.212952-50.707892 6.338359-76.602655 6.338359-62.046125 0-122.253368-12.159948-178.943508-36.134988-54.743812-23.154349-103.900372-56.299237-146.108682-98.507548-42.209334-42.209334-75.349105-91.365894-98.507548-146.108682-23.975041-56.691163-36.134988-116.897384-36.134988-178.943508s12.159948-122.251322 36.134988-178.943508c23.158443-54.742788 56.299237-103.904465 98.507548-146.113799 42.207287-42.207287 91.364871-75.347059 146.108682-98.502431 56.69014-23.980157 116.897384-36.139082 178.943508-36.139082 62.045101 0 122.251322 12.157901 178.941462 36.139082 54.743812 23.154349 103.906511 56.294121 146.113799 98.502431 42.209334 42.209334 75.349105 91.37101 98.502431 146.113799 23.980157 56.691163 36.140105 116.897384 36.140105 178.943508S959.535803 371.364351 935.555645 428.055514L935.555645 428.055514zM797.292652-36.182692c-76.201519-76.207659-177.520089-118.17447-285.290605-118.17447-107.774609 0-209.093179 41.966811-285.294698 118.17447-76.207659 76.205613-118.173446 177.525206-118.173446 285.294698 0 98.417497 35.017538 191.44524 99.129718 264.888949 15.228843-26.181289 48.115857-49.334615 92.910063-66.966181 21.427008 40.309054 60.249199 91.762937 126.211517 117.873618-42.680055-38.598086-64.862263-95.798856-75.626421-134.084834 47.037293-12.143575 102.037954-19.133779 160.838152-19.133779 146.875139 0 270.162046 43.533492 304.337403 102.311177 64.11218-73.443709 99.129718-166.471452 99.129718-264.888949C915.465075 141.343537 873.499287 40.023944 797.292652-36.182692L797.292652-36.182692zM323.562257 249.112006c0 14.322194 5.897314 28.55229 16.028045 38.683021 10.125615 10.125615 24.360827 16.022928 38.683021 16.022928 14.322194 0 28.557406-5.897314 38.683021-16.022928 10.125615-10.130731 16.022928-24.360827 16.022928-38.683021s-5.897314-28.557406-16.022928-38.688137c-10.125615-10.125615-24.360827-16.022928-38.683021-16.022928-14.322194 0-28.557406 5.897314-38.683021 16.022928C329.45957 220.5546 323.562257 234.790836 323.562257 249.112006L323.562257 249.112006zM591.020728 249.112006c0 14.322194 5.897314 28.55229 16.022928 38.683021 10.130731 10.125615 24.360827 16.022928 38.688137 16.022928 14.322194 0 28.55229-5.897314 38.683021-16.022928 10.125615-10.130731 16.022928-24.360827 16.022928-38.683021s-5.897314-28.557406-16.022928-38.688137c-10.130731-10.125615-24.360827-16.022928-38.683021-16.022928-14.32731 0-28.557406 5.897314-38.688137 16.022928C596.918042 220.5546 591.020728 234.790836 591.020728 249.112006L591.020728 249.112006zM512.002047-69.6929c97.043197 0 163.570379 52.376904 209.475895 130.370233L302.527175 60.677333C348.427574-17.315996 414.959873-69.6929 512.002047-69.6929L512.002047-69.6929zM512.002047-69.6929"  horiz-adv-x="1024" />

    
    </font>
</defs>
</svg>
